<?xml version="1.0" encoding="UTF-8" standalone="no"?>
<!-- Created with Inkscape (http://www.inkscape.org/) -->

<svg
   xmlns:dc="http://purl.org/dc/elements/1.1/"
   xmlns:cc="http://creativecommons.org/ns#"
   xmlns:rdf="http://www.w3.org/1999/02/22-rdf-syntax-ns#"
   xmlns:svg="http://www.w3.org/2000/svg"
   xmlns="http://www.w3.org/2000/svg"
   xmlns:sodipodi="http://sodipodi.sourceforge.net/DTD/sodipodi-0.dtd"
   xmlns:inkscape="http://www.inkscape.org/namespaces/inkscape"
   width="744.09448819"
   height="1052.3622047"
   id="svg2"
   version="1.1"
   inkscape:version="0.48.5 r10040"
   sodipodi:docname="New document 1">
  <defs
     id="defs4" />
  <sodipodi:namedview
     id="base"
     pagecolor="#ffffff"
     bordercolor="#666666"
     borderopacity="1.0"
     inkscape:pageopacity="0.0"
     inkscape:pageshadow="2"
     inkscape:zoom="0.7"
     inkscape:cx="400.54287"
     inkscape:cy="446.28647"
     inkscape:document-units="px"
     inkscape:current-layer="layer8"
     showgrid="false"
     inkscape:window-width="1366"
     inkscape:window-height="706"
     inkscape:window-x="-8"
     inkscape:window-y="-8"
     inkscape:window-maximized="1" />
  <metadata
     id="metadata7">
    <rdf:RDF>
      <cc:Work
         rdf:about="">
        <dc:format>image/svg+xml</dc:format>
        <dc:type
           rdf:resource="http://purl.org/dc/dcmitype/StillImage" />
        <dc:title></dc:title>
      </cc:Work>
    </rdf:RDF>
  </metadata>
  <g
     inkscape:label="Frame01"
     inkscape:groupmode="layer"
     id="layer1">
    <path
       sodipodi:type="arc"
       style="fill:#b3b3b3;stroke:none"
       id="path3818"
       sodipodi:cx="511.42856"
       sodipodi:cy="241.6479"
       sodipodi:rx="88.571426"
       sodipodi:ry="89.285713"
       d="m 599.99998,241.6479 a 88.571426,89.285713 0 1 1 -177.14285,0 88.571426,89.285713 0 1 1 177.14285,0 z"
       transform="translate(-392.94934,-126.26907)" />
    <path
       sodipodi:type="arc"
       style="fill:#ffffff;stroke:none"
       id="path3822"
       sodipodi:cx="473.57144"
       sodipodi:cy="233.79076"
       sodipodi:rx="26.428572"
       sodipodi:ry="24.285715"
       d="m 500.00001,233.79076 a 26.428572,24.285715 0 1 1 -52.85714,0 26.428572,24.285715 0 1 1 52.85714,0 z"
       transform="translate(-410.0922,-91.983354)" />
    <path
       transform="translate(-298.66363,-91.983354)"
       d="m 500.00001,233.79076 a 26.428572,24.285715 0 1 1 -52.85714,0 26.428572,24.285715 0 1 1 52.85714,0 z"
       sodipodi:ry="24.285715"
       sodipodi:rx="26.428572"
       sodipodi:cy="233.79076"
       sodipodi:cx="473.57144"
       id="path3824"
       style="fill:#ffffff;stroke:none"
       sodipodi:type="arc" />
    <path
       sodipodi:type="arc"
       style="fill:#000000;stroke:none"
       id="path3826"
       sodipodi:cx="463.57144"
       sodipodi:cy="280.93362"
       sodipodi:rx="19.285715"
       sodipodi:ry="18.571428"
       d="m 482.85716,280.93362 a 19.285715,18.571428 0 1 1 -38.57143,0 19.285715,18.571428 0 1 1 38.57143,0 z"
       transform="translate(-394.94934,-133.12621)" />
    <path
       d="m 482.85716,280.93362 a 19.285715,18.571428 0 1 1 -38.57143,0 19.285715,18.571428 0 1 1 38.57143,0 z"
       sodipodi:ry="18.571428"
       sodipodi:rx="19.285715"
       sodipodi:cy="280.93362"
       sodipodi:cx="463.57144"
       id="path3828"
       style="fill:#000000;stroke:none"
       sodipodi:type="arc"
       transform="translate(-291.52077,-133.12621)" />
    <path
       sodipodi:type="arc"
       style="fill:#000000;stroke:none"
       id="path3830"
       sodipodi:cx="495"
       sodipodi:cy="325.21933"
       sodipodi:rx="9.2857141"
       sodipodi:ry="2.8571429"
       d="m 504.28571,325.21933 a 9.2857141,2.8571429 0 1 1 -18.57142,0 9.2857141,2.8571429 0 1 1 18.57142,0 z"
       transform="translate(-392.94934,-126.26907)" />
    <path
       d="m 504.28571,325.21933 a 9.2857141,2.8571429 0 1 1 -18.57142,0 9.2857141,2.8571429 0 1 1 18.57142,0 z"
       sodipodi:ry="2.8571429"
       sodipodi:rx="9.2857141"
       sodipodi:cy="325.21933"
       sodipodi:cx="495"
       id="path3832"
       style="fill:#000000;stroke:none"
       sodipodi:type="arc"
       transform="translate(-361.52077,-126.26907)" />
    <path
       style="fill:#999999;stroke:none"
       d="m 206.33636,89.664542 c 0,7.49529 -32.68233,-9.28571 -83.57143,-9.28571 -50.8891,0 -92.14286,18.20957 -92.14286,10.71428 0,-7.49529 41.25376,-32.14286 92.14286,-32.14286 50.8891,0 83.57143,23.219 83.57143,30.71429 z"
       id="path3836"
       inkscape:connector-curvature="0"
       sodipodi:nodetypes="sssss" />
    <path
       style="fill:#666666;stroke:none"
       d="m 207.05073,85.378828 c -8.21485,20.931582 -50.08194,-10.71429 -90.7143,-10.71429 -40.632399,0 -76.240423,32.188192 -86.428579,12.142857 C 18.47929,64.32152 78.56118,21.807408 119.19358,21.807408 c 40.63236,0 94.99999,45.371265 87.85715,63.57142 z"
       id="path3839"
       inkscape:connector-curvature="0"
       sodipodi:nodetypes="sssss" />
    <path
       sodipodi:type="arc"
       style="fill:#666666;stroke:none"
       id="path3842"
       sodipodi:cx="511.42856"
       sodipodi:cy="147.36218"
       sodipodi:rx="10"
       sodipodi:ry="7.8571429"
       d="m 521.42856,147.36218 a 10,7.8571429 0 1 1 -20,0 10,7.8571429 0 1 1 20,0 z"
       transform="translate(-392.94934,-126.26907)" />
    <path
       style="fill:#000000;stroke:none"
       d="m 120.26493,196.09312 c 0,2.76142 -13.10695,5.71429 -21.78571,5.71429 -8.67876,0 -21.07143,-2.23858 -21.07143,-5 0,-2.76143 12.39266,-7.85714 21.07142,-7.85714 8.67876,0 21.78572,4.38142 21.78572,7.14285 z"
       id="path3844"
       inkscape:connector-curvature="0"
       sodipodi:nodetypes="sssss" />
    <path
       style="fill:#000000;stroke:none"
       d="m 158.47922,195.73598 c 0,2.76142 -14.17838,6.07143 -22.85714,6.07143 -8.67876,0 -19.64286,-4.0243 -19.64286,-6.78572 0,-2.76143 10.60695,-6.07142 19.28571,-6.07142 8.67876,0 23.21429,4.02428 23.21429,6.78571 z"
       id="path3846"
       inkscape:connector-curvature="0"
       sodipodi:nodetypes="sssss" />
    <path
       style="fill:#000000;stroke:none"
       d="m 86.336361,194.84311 c 0,1.67657 2.84137,6.25 0.17857,6.25 -2.6628,0 -28.39285,-11.71628 -28.75,-19.10713 -0.0809,-1.67463 28.23006,8.39284 30.89286,8.39284 2.6628,0 -2.32143,2.78771 -2.32143,4.46429 z"
       id="path3850"
       inkscape:connector-curvature="0"
       sodipodi:nodetypes="sssss" />
    <path
       style="fill:#000000;stroke:none"
       d="m 179.19351,183.41454 c 3.21428,0.248 -24.65863,15.89286 -27.32143,15.89286 -2.6628,0 -1.60714,-1.002 -1.60714,-2.67857 0,-1.67658 -8.19852,-5.89286 -5.53572,-5.89286 2.6628,0 32.79268,-7.4504 34.46429,-7.32143 z"
       id="path3854"
       inkscape:connector-curvature="0"
       sodipodi:nodetypes="sssss" />
    <path
       style="fill:#000000;stroke:none"
       d="m 77.4078,114.12883 c 0,0.8876 -9.56762,-1.60715 -16.96429,-1.60715 -7.39667,0 -15.89285,4.28046 -15.89285,3.39286 0,-0.8876 8.49618,-6.60714 15.89285,-6.60714 7.39667,0 16.96429,3.93383 16.96429,4.82143 z"
       id="path3860"
       inkscape:connector-curvature="0"
       sodipodi:nodetypes="sssss" />
    <path
       style="fill:#000000;stroke:none"
       d="m 197.05066,115.55739 c 0,0.8876 -8.49619,-2.67857 -15.89286,-2.67857 -7.39667,0 -19.10714,2.85189 -19.10714,1.96429 0,-0.8876 11.71047,-5.17857 19.10714,-5.17857 7.39667,0 15.89286,5.00525 15.89286,5.89285 z"
       id="path3862"
       inkscape:connector-curvature="0"
       sodipodi:nodetypes="sssss" />
    <path
       style="fill:#999999;stroke:none"
       d="m 132.40778,202.34312 c 0,1.28209 -8.20848,1.60714 -13.92857,1.60714 -5.7201,0 -13.57144,-0.6822 -13.57144,-1.96429 0,-1.28209 8.20848,-4.10714 13.92858,-4.10714 5.72009,0 13.57143,3.1822 13.57143,4.46429 z"
       id="path3866"
       inkscape:connector-curvature="0"
       sodipodi:nodetypes="sssss" />
    <path
       sodipodi:type="arc"
       style="fill:#999999;stroke:none"
       id="path3871"
       sodipodi:cx="504.28571"
       sodipodi:cy="312.54074"
       sodipodi:rx="3.9285715"
       sodipodi:ry="0.89285713"
       d="m 508.21428,312.54074 a 3.9285715,0.89285713 0 1 1 -7.85715,0 3.9285715,0.89285713 0 1 1 7.85715,0 z"
       transform="translate(-392.94934,-126.26907)" />
    <path
       d="m 508.21428,312.54074 a 3.9285715,0.89285713 0 1 1 -7.85715,0 3.9285715,0.89285713 0 1 1 7.85715,0 z"
       sodipodi:ry="0.89285713"
       sodipodi:rx="3.9285715"
       sodipodi:cy="312.54074"
       sodipodi:cx="504.28571"
       id="path3873"
       style="fill:#999999;stroke:none"
       sodipodi:type="arc"
       transform="translate(-380.44934,-126.26907)" />
  </g>
  <g
     inkscape:groupmode="layer"
     id="layer2"
     inkscape:label="Frame02">
    <path
       sodipodi:type="arc"
       style="fill:#b3b3b3;stroke:none"
       id="path3818-6"
       sodipodi:cx="511.42856"
       sodipodi:cy="241.6479"
       sodipodi:rx="88.571426"
       sodipodi:ry="89.285713"
       d="m 599.99998,241.6479 a 88.571426,89.285713 0 1 1 -177.14285,0 88.571426,89.285713 0 1 1 177.14285,0 z"
       transform="matrix(0.76426237,0.64490545,-0.64490545,0.76426237,103.56931,-398.44005)" />
    <path
       sodipodi:type="arc"
       style="fill:#ffffff;stroke:none"
       id="path3822-1"
       sodipodi:cx="473.57144"
       sodipodi:cy="233.79076"
       sodipodi:rx="26.428572"
       sodipodi:ry="24.285715"
       d="m 500.00001,233.79076 a 26.428572,24.285715 0 1 1 -52.85714,0 26.428572,24.285715 0 1 1 52.85714,0 z"
       transform="matrix(0.76426237,0.64490545,-0.64490545,0.76426237,68.356623,-383.29229)" />
    <path
       transform="matrix(0.76426237,0.64490545,-0.64490545,0.76426237,153.51729,-311.43139)"
       d="m 500.00001,233.79076 a 26.428572,24.285715 0 1 1 -52.85714,0 26.428572,24.285715 0 1 1 52.85714,0 z"
       sodipodi:ry="24.285715"
       sodipodi:rx="26.428572"
       sodipodi:cy="233.79076"
       sodipodi:cx="473.57144"
       id="path3824-4"
       style="fill:#ffffff;stroke:none"
       sodipodi:type="arc" />
    <path
       sodipodi:type="arc"
       style="fill:#000000;stroke:none"
       id="path3826-2"
       sodipodi:cx="463.57144"
       sodipodi:cy="280.93362"
       sodipodi:rx="19.285715"
       sodipodi:ry="18.571428"
       d="m 482.85716,280.93362 a 19.285715,18.571428 0 1 1 -38.57143,0 19.285715,18.571428 0 1 1 38.57143,0 z"
       transform="matrix(0.76426237,0.64490545,-0.64490545,0.76426237,106.463,-404.97051)" />
    <path
       d="m 482.85716,280.93362 a 19.285715,18.571428 0 1 1 -38.57143,0 19.285715,18.571428 0 1 1 38.57143,0 z"
       sodipodi:ry="18.571428"
       sodipodi:rx="19.285715"
       sodipodi:cy="280.93362"
       sodipodi:cx="463.57144"
       id="path3828-3"
       style="fill:#000000;stroke:none"
       sodipodi:type="arc"
       transform="matrix(0.76426237,0.64490545,-0.64490545,0.76426237,185.50956,-338.26886)" />
    <path
       sodipodi:type="arc"
       style="fill:#000000;stroke:none"
       id="path3830-2"
       sodipodi:cx="495"
       sodipodi:cy="325.21933"
       sodipodi:rx="9.2857141"
       sodipodi:ry="2.8571429"
       d="m 504.28571,325.21933 a 9.2857141,2.8571429 0 1 1 -18.57142,0 9.2857141,2.8571429 0 1 1 18.57142,0 z"
       transform="matrix(0.76426237,0.64490545,-0.64490545,0.76426237,103.56931,-398.44005)" />
    <path
       d="m 504.28571,325.21933 a 9.2857141,2.8571429 0 1 1 -18.57142,0 9.2857141,2.8571429 0 1 1 18.57142,0 z"
       sodipodi:ry="2.8571429"
       sodipodi:rx="9.2857141"
       sodipodi:cy="325.21933"
       sodipodi:cx="495"
       id="path3832-2"
       style="fill:#000000;stroke:none"
       sodipodi:type="arc"
       transform="matrix(0.76426237,0.64490545,-0.64490545,0.76426237,127.58899,-378.17159)" />
    <path
       style="fill:#999999;stroke:none"
       d="M 422.32406,153.0725 C 417.4903,158.80086 403.33459,124.89877 364.44197,92.080114 325.54935,59.261456 282.2772,46.573568 287.11095,40.845203 c 4.83376,-5.728368 52.25781,2.039196 91.15043,34.857854 38.89262,32.818653 48.89643,71.641073 44.06268,77.369443 z"
       id="path3836-1"
       inkscape:connector-curvature="0"
       sodipodi:nodetypes="sssss" />
    <path
       style="fill:#666666;stroke:none"
       d="m 425.6339,150.25779 c -19.77719,10.69942 -31.36604,-40.48664 -62.41981,-66.690668 -31.05382,-26.204056 -79.02603,-24.567648 -73.8851,-46.457938 5.76684,-24.555445 79.10275,-18.300241 110.15656,7.903815 31.05378,26.204024 43.34474,95.941551 26.14835,105.244791 z"
       id="path3839-6"
       inkscape:connector-curvature="0"
       sodipodi:nodetypes="sssss" />
    <path
       sodipodi:type="arc"
       style="fill:#666666;stroke:none"
       id="path3842-8"
       sodipodi:cx="511.42856"
       sodipodi:cy="147.36218"
       sodipodi:rx="10"
       sodipodi:ry="7.8571429"
       d="m 521.42856,147.36218 a 10,7.8571429 0 1 1 -20,0 10,7.8571429 0 1 1 20,0 z"
       transform="matrix(0.76426237,0.64490545,-0.64490545,0.76426237,103.56931,-398.44005)" />
    <path
       style="fill:#000000;stroke:none"
       d="m 287.90654,178.90393 c -1.78085,2.11044 -13.70232,-4.08553 -20.33517,-9.68251 -6.63285,-5.59698 -14.66043,-15.29994 -12.87958,-17.41039 1.78086,-2.11046 14.53836,1.98717 21.17121,7.58415 6.63285,5.59698 13.8244,17.39829 12.04354,19.50875 z"
       id="path3844-5"
       inkscape:connector-curvature="0"
       sodipodi:nodetypes="sssss" />
    <path
       style="fill:#000000;stroke:none"
       d="m 317.3426,203.27557 c -1.78086,2.11045 -14.7515,-4.50355 -21.38435,-10.10052 -6.63284,-5.59698 -12.417,-15.74341 -10.63614,-17.85386 1.78086,-2.11045 12.02198,2.20033 18.65482,7.7973 6.63285,5.59698 15.14653,18.04663 13.36567,20.15708 z"
       id="path3846-7"
       inkscape:connector-curvature="0"
       sodipodi:nodetypes="sssss" />
    <path
       style="fill:#000000;stroke:none"
       d="m 262.78235,156.06787 c -1.08123,1.28134 -1.85911,6.60905 -3.89418,4.8918 -2.03508,-1.71725 -14.1437,-27.26502 -9.65025,-33.14389 1.01814,-1.33203 16.16258,24.62005 18.19766,26.3373 2.03508,1.71726 -3.57199,0.63344 -4.65323,1.91479 z"
       id="path3850-6"
       inkscape:connector-curvature="0"
       sodipodi:nodetypes="sssss" />
    <path
       style="fill:#000000;stroke:none"
       d="m 341.11992,207.21752 c 2.29661,2.26244 -29.09506,-3.75617 -31.13014,-5.47342 -2.03507,-1.71726 -0.58208,-1.80225 0.49915,-3.08359 1.08124,-1.28135 -2.46548,-9.79096 -0.4304,-8.07371 2.03507,1.71726 29.86701,15.45412 31.06139,16.63072 z"
       id="path3854-1"
       inkscape:connector-curvature="0"
       sodipodi:nodetypes="sssss" />
    <path
       style="fill:#000000;stroke:none"
       d="m 308.01167,88.622906 c -0.57242,0.67836 -6.27571,-7.398494 -11.92871,-12.168647 -5.653,-4.770153 -14.9068,-6.977991 -14.33438,-7.65635 0.57242,-0.67836 10.75429,0.429644 16.40729,5.199797 5.65299,4.770153 10.42822,13.946841 9.8558,14.6252 z"
       id="path3860-8"
       inkscape:connector-curvature="0"
       sodipodi:nodetypes="sssss" />
    <path
       style="fill:#000000;stroke:none"
       d="m 398.52891,166.87303 c -0.57242,0.67836 -4.76589,-7.52637 -10.41889,-12.29653 -5.653,-4.77015 -16.44207,-10.1427 -15.86965,-10.82106 0.57242,-0.67836 12.28956,3.59436 17.94256,8.36451 5.65299,4.77015 8.9184,14.07472 8.34598,14.75308 z"
       id="path3862-9"
       inkscape:connector-curvature="0"
       sodipodi:nodetypes="sssss" />
    <path
       style="fill:#999999;stroke:none"
       d="m 293.1562,191.51155 c -0.82683,0.97985 -7.30988,-4.06541 -11.68153,-7.75433 -4.37166,-3.68892 -9.93219,-9.27367 -9.10536,-10.25353 0.82683,-0.97985 8.92215,2.15476 13.29381,5.84369 4.37165,3.68891 8.31991,11.18432 7.49308,12.16417 z"
       id="path3866-2"
       inkscape:connector-curvature="0"
       sodipodi:nodetypes="sssss" />
    <path
       sodipodi:type="arc"
       style="fill:#999999;stroke:none"
       id="path3871-7"
       sodipodi:cx="504.28571"
       sodipodi:cy="312.54074"
       sodipodi:rx="3.9285715"
       sodipodi:ry="0.89285713"
       d="m 508.21428,312.54074 a 3.9285715,0.89285713 0 1 1 -7.85715,0 3.9285715,0.89285713 0 1 1 7.85715,0 z"
       transform="matrix(0.76426237,0.64490545,-0.64490545,0.76426237,103.56931,-398.44005)" />
    <path
       d="m 508.21428,312.54074 a 3.9285715,0.89285713 0 1 1 -7.85715,0 3.9285715,0.89285713 0 1 1 7.85715,0 z"
       sodipodi:ry="0.89285713"
       sodipodi:rx="3.9285715"
       sodipodi:cy="312.54074"
       sodipodi:cx="504.28571"
       id="path3873-9"
       style="fill:#999999;stroke:none"
       sodipodi:type="arc"
       transform="matrix(0.76426237,0.64490545,-0.64490545,0.76426237,113.12259,-390.37873)" />
  </g>
  <g
     inkscape:groupmode="layer"
     id="layer3"
     inkscape:label="Frame03">
    <path
       sodipodi:type="arc"
       style="fill:#b3b3b3;stroke:none"
       id="path3818-5"
       sodipodi:cx="511.42856"
       sodipodi:cy="241.6479"
       sodipodi:rx="88.571426"
       sodipodi:ry="89.285713"
       d="m 599.99998,241.6479 a 88.571426,89.285713 0 1 1 -177.14285,0 88.571426,89.285713 0 1 1 177.14285,0 z"
       transform="matrix(0.00632139,0.99998002,-0.99998002,0.00632139,817.87264,-393.53283)" />
    <path
       sodipodi:type="arc"
       style="fill:#ffffff;stroke:none"
       id="path3822-4"
       sodipodi:cx="473.57144"
       sodipodi:cy="233.79076"
       sodipodi:rx="26.428572"
       sodipodi:ry="24.285715"
       d="m 500.00001,233.79076 a 26.428572,24.285715 0 1 1 -52.85714,0 26.428572,24.285715 0 1 1 52.85714,0 z"
       transform="matrix(0.00632139,0.99998002,-0.99998002,0.00632139,783.47923,-410.45862)" />
    <path
       transform="matrix(0.00632139,0.99998002,-0.99998002,0.00632139,784.18361,-299.03227)"
       d="m 500.00001,233.79076 a 26.428572,24.285715 0 1 1 -52.85714,0 26.428572,24.285715 0 1 1 52.85714,0 z"
       sodipodi:ry="24.285715"
       sodipodi:rx="26.428572"
       sodipodi:cy="233.79076"
       sodipodi:cx="473.57144"
       id="path3824-3"
       style="fill:#ffffff;stroke:none"
       sodipodi:type="arc" />
    <path
       sodipodi:type="arc"
       style="fill:#000000;stroke:none"
       id="path3826-1"
       sodipodi:cx="463.57144"
       sodipodi:cy="280.93362"
       sodipodi:rx="19.285715"
       sodipodi:ry="18.571428"
       d="m 482.85716,280.93362 a 19.285715,18.571428 0 1 1 -38.57143,0 19.285715,18.571428 0 1 1 38.57143,0 z"
       transform="matrix(0.00632139,0.99998002,-0.99998002,0.00632139,824.717,-395.57614)" />
    <path
       d="m 482.85716,280.93362 a 19.285715,18.571428 0 1 1 -38.57143,0 19.285715,18.571428 0 1 1 38.57143,0 z"
       sodipodi:ry="18.571428"
       sodipodi:rx="19.285715"
       sodipodi:cy="280.93362"
       sodipodi:cx="463.57144"
       id="path3828-2"
       style="fill:#000000;stroke:none"
       sodipodi:type="arc"
       transform="matrix(0.00632139,0.99998002,-0.99998002,0.00632139,825.37081,-292.14963)" />
    <path
       sodipodi:type="arc"
       style="fill:#000000;stroke:none"
       id="path3830-3"
       sodipodi:cx="495"
       sodipodi:cy="325.21933"
       sodipodi:rx="9.2857141"
       sodipodi:ry="2.8571429"
       d="m 504.28571,325.21933 a 9.2857141,2.8571429 0 1 1 -18.57142,0 9.2857141,2.8571429 0 1 1 18.57142,0 z"
       transform="matrix(0.00632139,0.99998002,-0.99998002,0.00632139,817.87264,-393.53283)" />
    <path
       d="m 504.28571,325.21933 a 9.2857141,2.8571429 0 1 1 -18.57142,0 9.2857141,2.8571429 0 1 1 18.57142,0 z"
       sodipodi:ry="2.8571429"
       sodipodi:rx="9.2857141"
       sodipodi:cy="325.21933"
       sodipodi:cx="495"
       id="path3832-3"
       style="fill:#000000;stroke:none"
       sodipodi:type="arc"
       transform="matrix(0.00632139,0.99998002,-0.99998002,0.00632139,818.07131,-362.10489)" />
    <path
       style="fill:#999999;stroke:none"
       d="m 605.73166,207.1059 c -7.49514,0.0474 9.07892,-32.74038 8.75723,-83.62846 -0.32169,-50.888087 -18.79167,-92.025913 -11.29653,-92.073294 7.49514,-0.04738 32.403,41.049748 32.72469,91.937834 0.32169,50.88808 -22.69025,83.71654 -30.18539,83.76392 z"
       id="path3836-4"
       inkscape:connector-curvature="0"
       sodipodi:nodetypes="sssss" />
    <path
       style="fill:#666666;stroke:none"
       d="m 610.0218,207.79316 c -20.98309,-8.08237 10.39749,-50.14867 10.14063,-90.78022 -0.25685,-40.631586 -32.66949,-76.03542 -12.68896,-86.350091 22.41318,-11.570474 65.30624,48.241467 65.5631,88.873061 0.25685,40.63154 -44.76982,95.2849 -63.01477,88.25725 z"
       id="path3839-1"
       inkscape:connector-curvature="0"
       sodipodi:nodetypes="sssss" />
    <path
       sodipodi:type="arc"
       style="fill:#666666;stroke:none"
       id="path3842-1"
       sodipodi:cx="511.42856"
       sodipodi:cy="147.36218"
       sodipodi:rx="10"
       sodipodi:ry="7.8571429"
       d="m 521.42856,147.36218 a 10,7.8571429 0 1 1 -20,0 10,7.8571429 0 1 1 20,0 z"
       transform="matrix(0.00632139,0.99998002,-0.99998002,0.00632139,817.87264,-393.53283)" />
    <path
       style="fill:#000000;stroke:none"
       d="m 498.76112,121.70896 c -2.76137,0.0175 -5.79703,-13.07056 -5.8519,-21.749151 -0.0549,-8.678587 2.10534,-21.08516 4.8667,-21.102616 2.76138,-0.01746 7.93533,12.342744 7.99019,21.021331 0.0549,8.678586 -4.24362,21.812986 -7.00499,21.830436 z"
       id="path3844-3"
       inkscape:connector-curvature="0"
       sodipodi:nodetypes="sssss" />
    <path
       style="fill:#000000;stroke:none"
       d="m 499.35982,159.92023 c -2.76137,0.0175 -6.16094,-14.13971 -6.2158,-22.8183 -0.0549,-8.67859 3.90005,-19.66791 6.66141,-19.68536 2.76138,-0.0175 6.13835,10.56835 6.19321,19.24694 0.0549,8.67859 -3.87745,23.23927 -6.63882,23.25672 z"
       id="path3846-8"
       inkscape:connector-curvature="0"
       sodipodi:nodetypes="sssss" />
    <path
       style="fill:#000000;stroke:none"
       d="m 499.79663,87.773167 c -1.67654,0.0106 -6.23192,2.880822 -6.24875,0.218076 -0.0168,-2.662747 11.53656,-28.466346 18.92501,-28.87021 1.67408,-0.09148 -8.21422,28.282551 -8.19739,30.945298 0.0168,2.662746 -2.80233,-2.303762 -4.47887,-2.293164 z"
       id="path3850-7"
       inkscape:connector-curvature="0"
       sodipodi:nodetypes="sssss" />
    <path
       style="fill:#000000;stroke:none"
       d="m 511.81195,180.55622 c -0.22767,3.21578 -16.04842,-24.55767 -16.06525,-27.22042 -0.0168,-2.66275 0.99182,-1.61344 2.66836,-1.62404 1.67655,-0.0106 5.84091,-8.23561 5.85775,-5.57286 0.0168,2.66275 7.65754,32.74493 7.53914,34.41732 z"
       id="path3854-4"
       inkscape:connector-curvature="0"
       sodipodi:nodetypes="sssss" />
    <path
       style="fill:#000000;stroke:none"
       d="m 580.45285,78.334559 c -0.88758,0.0056 1.54664,-9.577588 1.49988,-16.97411 -0.0468,-7.396523 -4.38084,-15.865474 -3.49326,-15.871085 0.88759,-0.0056 6.66072,8.454244 6.70748,15.850766 0.0467,7.396522 -3.82652,16.988818 -4.7141,16.994429 z"
       id="path3860-2"
       inkscape:connector-curvature="0"
       sodipodi:nodetypes="sssss" />
    <path
       style="fill:#000000;stroke:none"
       d="m 579.78063,197.98406 c -0.88758,0.006 2.62481,-8.51295 2.57805,-15.90947 -0.0468,-7.39653 -2.97262,-19.08873 -2.08503,-19.09434 0.88758,-0.006 5.25249,11.6775 5.29925,19.07402 0.0467,7.39652 -4.90469,15.92418 -5.79227,15.92979 z"
       id="path3862-7"
       inkscape:connector-curvature="0"
       sodipodi:nodetypes="sssss" />
    <path
       style="fill:#999999;stroke:none"
       d="m 492.588,133.89108 c -1.28206,0.008 -1.659,-8.19816 -1.69516,-13.91813 -0.0362,-5.71999 0.5964,-13.57549 1.87847,-13.58359 1.28206,-0.008 4.15894,8.18235 4.1951,13.90234 0.0362,5.71998 -3.09634,13.59127 -4.37841,13.59938 z"
       id="path3866-7"
       inkscape:connector-curvature="0"
       sodipodi:nodetypes="sssss" />
    <path
       sodipodi:type="arc"
       style="fill:#999999;stroke:none"
       id="path3871-9"
       sodipodi:cx="504.28571"
       sodipodi:cy="312.54074"
       sodipodi:rx="3.9285715"
       sodipodi:ry="0.89285713"
       d="m 508.21428,312.54074 a 3.9285715,0.89285713 0 1 1 -7.85715,0 3.9285715,0.89285713 0 1 1 7.85715,0 z"
       transform="matrix(0.00632139,0.99998002,-0.99998002,0.00632139,817.87264,-393.53283)" />
    <path
       d="m 508.21428,312.54074 a 3.9285715,0.89285713 0 1 1 -7.85715,0 3.9285715,0.89285713 0 1 1 7.85715,0 z"
       sodipodi:ry="0.89285713"
       sodipodi:rx="3.9285715"
       sodipodi:cy="312.54074"
       sodipodi:cx="504.28571"
       id="path3873-3"
       style="fill:#999999;stroke:none"
       sodipodi:type="arc"
       transform="matrix(0.00632139,0.99998002,-0.99998002,0.00632139,817.95165,-381.03308)" />
  </g>
  <g
     inkscape:groupmode="layer"
     id="layer4"
     inkscape:label="Frame04">
    <path
       sodipodi:type="arc"
       style="fill:#b3b3b3;stroke:none"
       id="path3818-1"
       sodipodi:cx="511.42856"
       sodipodi:cy="241.6479"
       sodipodi:rx="88.571426"
       sodipodi:ry="89.285713"
       d="m 599.99998,241.6479 a 88.571426,89.285713 0 1 1 -177.14285,0 88.571426,89.285713 0 1 1 177.14285,0 z"
       transform="matrix(-0.9357806,0.35258285,-0.35258285,-0.9357806,678.33084,371.04394)" />
    <path
       sodipodi:type="arc"
       style="fill:#ffffff;stroke:none"
       id="path3822-9"
       sodipodi:cx="473.57144"
       sodipodi:cy="233.79076"
       sodipodi:rx="26.428572"
       sodipodi:ry="24.285715"
       d="m 500.00001,233.79076 a 26.428572,24.285715 0 1 1 -52.85714,0 26.428572,24.285715 0 1 1 52.85714,0 z"
       transform="matrix(-0.9357806,0.35258285,-0.35258285,-0.9357806,682.28424,332.91575)" />
    <path
       transform="matrix(-0.9357806,0.35258285,-0.35258285,-0.9357806,578.01154,372.20355)"
       d="m 500.00001,233.79076 a 26.428572,24.285715 0 1 1 -52.85714,0 26.428572,24.285715 0 1 1 52.85714,0 z"
       sodipodi:ry="24.285715"
       sodipodi:rx="26.428572"
       sodipodi:cy="233.79076"
       sodipodi:cx="473.57144"
       id="path3824-8"
       style="fill:#ffffff;stroke:none"
       sodipodi:type="arc" />
    <path
       sodipodi:type="arc"
       style="fill:#000000;stroke:none"
       id="path3826-6"
       sodipodi:cx="463.57144"
       sodipodi:cy="280.93362"
       sodipodi:rx="19.285715"
       sodipodi:ry="18.571428"
       d="m 482.85716,280.93362 a 19.285715,18.571428 0 1 1 -38.57143,0 19.285715,18.571428 0 1 1 38.57143,0 z"
       transform="matrix(-0.9357806,0.35258285,-0.35258285,-0.9357806,682.62011,376.75555)" />
    <path
       d="m 482.85716,280.93362 a 19.285715,18.571428 0 1 1 -38.57143,0 19.285715,18.571428 0 1 1 38.57143,0 z"
       sodipodi:ry="18.571428"
       sodipodi:rx="19.285715"
       sodipodi:cy="280.93362"
       sodipodi:cx="463.57144"
       id="path3828-5"
       style="fill:#000000;stroke:none"
       sodipodi:type="arc"
       transform="matrix(-0.9357806,0.35258285,-0.35258285,-0.9357806,585.83366,413.22269)" />
    <path
       sodipodi:type="arc"
       style="fill:#000000;stroke:none"
       id="path3830-0"
       sodipodi:cx="495"
       sodipodi:cy="325.21933"
       sodipodi:rx="9.2857141"
       sodipodi:ry="2.8571429"
       d="m 504.28571,325.21933 a 9.2857141,2.8571429 0 1 1 -18.57142,0 9.2857141,2.8571429 0 1 1 18.57142,0 z"
       transform="matrix(-0.9357806,0.35258285,-0.35258285,-0.9357806,678.33084,371.04394)" />
    <path
       d="m 504.28571,325.21933 a 9.2857141,2.8571429 0 1 1 -18.57142,0 9.2857141,2.8571429 0 1 1 18.57142,0 z"
       sodipodi:ry="2.8571429"
       sodipodi:rx="9.2857141"
       sodipodi:cy="325.21933"
       sodipodi:cx="495"
       id="path3832-28"
       style="fill:#000000;stroke:none"
       sodipodi:type="arc"
       transform="matrix(-0.9357806,0.35258285,-0.35258285,-0.9357806,648.92059,382.12512)" />
    <path
       style="fill:#999999;stroke:none"
       d="m 41.396418,380.27532 c -2.64271,-7.01395 33.857473,-2.83385 81.478502,-20.77647 47.62104,-17.94262 79.80512,-49.52815 82.44783,-42.51421 2.64271,7.01395 -27.27144,44.62404 -74.89248,62.56666 -47.621029,17.94262 -86.391141,7.73796 -89.033852,0.72402 z"
       id="path3836-6"
       inkscape:connector-curvature="0"
       sodipodi:nodetypes="sssss" />
    <path
       style="fill:#666666;stroke:none"
       d="m 42.238993,384.53768 c 0.307181,-22.48379 50.643383,-7.63181 88.666357,-21.95809 38.02301,-14.32628 59.9953,-57.00215 76.59683,-41.83628 18.62276,17.01233 -22.61097,77.98005 -60.63398,92.30634 -38.02297,14.32628 -104.896274,-8.96218 -104.629207,-28.51197 z"
       id="path3839-0"
       inkscape:connector-curvature="0"
       sodipodi:nodetypes="sssss" />
    <path
       sodipodi:type="arc"
       style="fill:#666666;stroke:none"
       id="path3842-2"
       sodipodi:cx="511.42856"
       sodipodi:cy="147.36218"
       sodipodi:rx="10"
       sodipodi:ry="7.8571429"
       d="m 521.42856,147.36218 a 10,7.8571429 0 1 1 -20,0 10,7.8571429 0 1 1 20,0 z"
       transform="matrix(-0.9357806,0.35258285,-0.35258285,-0.9357806,678.33084,371.04394)" />
    <path
       style="fill:#000000;stroke:none"
       d="m 84.4155,250.33421 c -0.973629,-2.58409 10.250469,-9.96861 18.37189,-13.02859 8.12141,-3.05999 20.50752,-5.33461 21.48115,-2.75053 0.97363,2.5841 -8.82652,11.722 -16.94794,14.78198 -8.121414,3.05999 -21.931467,3.58123 -22.9051,0.99714 z"
       id="path3844-4"
       inkscape:connector-curvature="0"
       sodipodi:nodetypes="sssss" />
    <path
       style="fill:#000000;stroke:none"
       d="m 48.781231,264.14211 c -0.97363,-2.58408 11.12717,-10.68058 19.248586,-13.74056 8.121415,-3.05998 19.800306,-3.15987 20.773936,-0.57579 0.973632,2.58409 -7.7851,9.42135 -15.906515,12.48133 -8.121415,3.05998 -23.142374,4.41912 -24.116007,1.83502 z"
       id="path3846-86"
       inkscape:connector-curvature="0"
       sodipodi:nodetypes="sssss" />
    <path
       style="fill:#000000;stroke:none"
       d="m 116.60593,239.54131 c -0.59113,-1.5689 -4.86254,-4.84681 -2.37074,-5.78567 2.49179,-0.93886 30.70043,0.95304 33.64053,7.74332 0.66616,1.53857 -29.37631,2.09958 -31.86811,3.03844 -2.49179,0.93886 1.18945,-3.42718 0.59832,-4.99609 z"
       id="path3850-5"
       inkscape:connector-curvature="0"
       sodipodi:nodetypes="sssss" />
    <path
       style="fill:#000000;stroke:none"
       d="m 33.741528,282.97578 c -3.095301,0.90123 17.471518,-23.56644 19.963315,-24.5053 2.491796,-0.93885 1.857218,0.37101 2.448348,1.93991 0.591133,1.56891 9.749737,2.62376 7.257941,3.56262 -2.491797,0.93886 -28.059871,18.53408 -29.669604,19.00277 z"
       id="path3854-0"
       inkscape:connector-curvature="0"
       sodipodi:nodetypes="sssss" />
    <path
       style="fill:#000000;stroke:none"
       d="m 153.41958,311.92411 c -0.31296,-0.8306 9.51984,-1.86944 16.4415,-4.47738 6.92166,-2.60794 13.36301,-9.60912 13.67596,-8.77852 0.31295,0.8306 -5.621,9.17844 -12.54266,11.78638 -6.92166,2.60794 -17.26185,2.30012 -17.5748,1.46952 z"
       id="path3860-9"
       inkscape:connector-curvature="0"
       sodipodi:nodetypes="sssss" />
    <path
       style="fill:#000000;stroke:none"
       d="m 40.956421,352.77131 c -0.312952,-0.8306 8.894988,-0.48906 15.816648,-3.09699 6.921661,-2.60794 16.874564,-9.4056 17.187516,-8.575 0.312953,0.8306 -9.132555,8.97492 -16.054216,11.58286 -6.92166,2.60794 -16.636995,0.91973 -16.949948,0.0891 z"
       id="path3862-0"
       inkscape:connector-curvature="0"
       sodipodi:nodetypes="sssss" />
    <path
       style="fill:#999999;stroke:none"
       d="m 70.848814,248.76694 c -0.452043,-1.19976 7.114686,-4.3981 12.467436,-6.41491 5.352758,-2.01681 12.940422,-4.14667 13.392465,-2.94691 0.452043,1.19975 -6.233229,6.73755 -11.585988,8.75436 -5.352749,2.01681 -13.82187,1.80721 -14.273913,0.60746 z"
       id="path3866-0"
       inkscape:connector-curvature="0"
       sodipodi:nodetypes="sssss" />
    <path
       sodipodi:type="arc"
       style="fill:#999999;stroke:none"
       id="path3871-6"
       sodipodi:cx="504.28571"
       sodipodi:cy="312.54074"
       sodipodi:rx="3.9285715"
       sodipodi:ry="0.89285713"
       d="m 508.21428,312.54074 a 3.9285715,0.89285713 0 1 1 -7.85715,0 3.9285715,0.89285713 0 1 1 7.85715,0 z"
       transform="matrix(-0.9357806,0.35258285,-0.35258285,-0.9357806,678.33084,371.04394)" />
    <path
       d="m 508.21428,312.54074 a 3.9285715,0.89285713 0 1 1 -7.85715,0 3.9285715,0.89285713 0 1 1 7.85715,0 z"
       sodipodi:ry="0.89285713"
       sodipodi:rx="3.9285715"
       sodipodi:cy="312.54074"
       sodipodi:cx="504.28571"
       id="path3873-1"
       style="fill:#999999;stroke:none"
       sodipodi:type="arc"
       transform="matrix(-0.9357806,0.35258285,-0.35258285,-0.9357806,666.63358,375.45123)" />
  </g>
  <g
     inkscape:groupmode="layer"
     id="layer5"
     inkscape:label="Frame05">
    <path
       sodipodi:type="arc"
       style="fill:#b3b3b3;stroke:none"
       id="path3818-3"
       sodipodi:cx="511.42856"
       sodipodi:cy="241.6479"
       sodipodi:rx="88.571426"
       sodipodi:ry="89.285713"
       d="m 599.99998,241.6479 a 88.571426,89.285713 0 1 1 -177.14285,0 88.571426,89.285713 0 1 1 177.14285,0 z"
       transform="matrix(-0.86849046,-0.49570588,0.49570588,-0.86849046,682.80517,790.74354)" />
    <path
       sodipodi:type="arc"
       style="fill:#ffffff;stroke:none"
       id="path3822-8"
       sodipodi:cx="473.57144"
       sodipodi:cy="233.79076"
       sodipodi:rx="26.428572"
       sodipodi:ry="24.285715"
       d="m 500.00001,233.79076 a 26.428572,24.285715 0 1 1 -52.85714,0 26.428572,24.285715 0 1 1 52.85714,0 z"
       transform="matrix(-0.86849046,-0.49570588,0.49570588,-0.86849046,714.68921,769.46454)" />
    <path
       transform="matrix(-0.86849046,-0.49570588,0.49570588,-0.86849046,617.91456,714.22874)"
       d="m 500.00001,233.79076 a 26.428572,24.285715 0 1 1 -52.85714,0 26.428572,24.285715 0 1 1 52.85714,0 z"
       sodipodi:ry="24.285715"
       sodipodi:rx="26.428572"
       sodipodi:cy="233.79076"
       sodipodi:cx="473.57144"
       id="path3824-9"
       style="fill:#ffffff;stroke:none"
       sodipodi:type="arc" />
    <path
       sodipodi:type="arc"
       style="fill:#000000;stroke:none"
       id="path3826-3"
       sodipodi:cx="463.57144"
       sodipodi:cy="280.93362"
       sodipodi:rx="19.285715"
       sodipodi:ry="18.571428"
       d="m 482.85716,280.93362 a 19.285715,18.571428 0 1 1 -38.57143,0 19.285715,18.571428 0 1 1 38.57143,0 z"
       transform="matrix(-0.86849046,-0.49570588,0.49570588,-0.86849046,681.14302,797.69031)" />
    <path
       d="m 482.85716,280.93362 a 19.285715,18.571428 0 1 1 -38.57143,0 19.285715,18.571428 0 1 1 38.57143,0 z"
       sodipodi:ry="18.571428"
       sodipodi:rx="19.285715"
       sodipodi:cy="280.93362"
       sodipodi:cx="463.57144"
       id="path3828-4"
       style="fill:#000000;stroke:none"
       sodipodi:type="arc"
       transform="matrix(-0.86849046,-0.49570588,0.49570588,-0.86849046,591.3163,746.42016)" />
    <path
       sodipodi:type="arc"
       style="fill:#000000;stroke:none"
       id="path3830-4"
       sodipodi:cx="495"
       sodipodi:cy="325.21933"
       sodipodi:rx="9.2857141"
       sodipodi:ry="2.8571429"
       d="m 504.28571,325.21933 a 9.2857141,2.8571429 0 1 1 -18.57142,0 9.2857141,2.8571429 0 1 1 18.57142,0 z"
       transform="matrix(-0.86849046,-0.49570588,0.49570588,-0.86849046,682.80517,790.74354)" />
    <path
       d="m 504.28571,325.21933 a 9.2857141,2.8571429 0 1 1 -18.57142,0 9.2857141,2.8571429 0 1 1 18.57142,0 z"
       sodipodi:ry="2.8571429"
       sodipodi:rx="9.2857141"
       sodipodi:cy="325.21933"
       sodipodi:cx="495"
       id="path3832-6"
       style="fill:#000000;stroke:none"
       sodipodi:type="arc"
       transform="matrix(-0.86849046,-0.49570588,0.49570588,-0.86849046,655.50976,775.16421)" />
    <path
       style="fill:#999999;stroke:none"
       d="m 269.37081,306.13782 c 3.71546,-6.50959 23.78131,24.26537 67.97801,49.4914 44.1967,25.22602 89.05179,29.86092 85.33633,36.3705 -3.71546,6.50959 -51.7619,7.46604 -95.9586,-17.75999 -44.1967,-25.22602 -61.0712,-61.59233 -57.35574,-68.10191 z"
       id="path3836-0"
       inkscape:connector-curvature="0"
       sodipodi:nodetypes="sssss" />
    <path
       style="fill:#666666;stroke:none"
       d="m 266.62593,309.50581 c 17.51043,-14.10674 38.18455,34.13117 73.47337,54.27287 35.28884,20.14171 82.16996,9.83768 81.08167,32.29719 -1.22077,25.19397 -74.47582,32.33413 -109.76467,12.19241 -35.28882,-20.1417 -60.01578,-86.49656 -44.79037,-98.76247 z"
       id="path3839-66"
       inkscape:connector-curvature="0"
       sodipodi:nodetypes="sssss" />
    <path
       sodipodi:type="arc"
       style="fill:#666666;stroke:none"
       id="path3842-18"
       sodipodi:cx="511.42856"
       sodipodi:cy="147.36218"
       sodipodi:rx="10"
       sodipodi:ry="7.8571429"
       d="m 521.42856,147.36218 a 10,7.8571429 0 1 1 -20,0 10,7.8571429 0 1 1 20,0 z"
       transform="matrix(-0.86849046,-0.49570588,0.49570588,-0.86849046,682.80517,790.74354)" />
    <path
       style="fill:#000000;stroke:none"
       d="m 396.8803,256.37172 c 1.36885,-2.39826 14.21587,1.53439 21.75329,5.8365 7.53742,4.30211 17.19066,12.38942 15.82181,14.78769 -1.36886,2.39827 -14.65774,0.68073 -22.19516,-3.62138 -7.53742,-4.30211 -16.7488,-14.60453 -15.37994,-17.00281 z"
       id="path3844-49"
       inkscape:connector-curvature="0"
       sodipodi:nodetypes="sssss" />
    <path
       style="fill:#000000;stroke:none"
       d="m 363.51452,237.73885 c 1.36885,-2.39827 15.32343,1.75533 22.86085,6.05744 7.53742,4.30211 15.06477,13.23215 13.69591,15.63041 -1.36885,2.39828 -12.22167,0.015 -19.75909,-4.28707 -7.53742,-4.30211 -18.16653,-15.00251 -16.79767,-17.40078 z"
       id="path3846-6"
       inkscape:connector-curvature="0"
       sodipodi:nodetypes="sssss" />
    <path
       style="fill:#000000;stroke:none"
       d="m 425.72729,274.27593 c 0.83109,-1.45608 0.63046,-6.83655 2.94308,-5.51658 2.31262,1.31996 18.85109,24.24998 15.49758,30.8459 -0.75986,1.49451 -20.35715,-21.28291 -22.66977,-22.60287 -2.31262,-1.31997 3.39802,-1.27035 4.22911,-2.72645 z"
       id="path3850-3"
       inkscape:connector-curvature="0"
       sodipodi:nodetypes="sssss" />
    <path
       style="fill:#000000;stroke:none"
       d="m 339.41654,238.17171 c -2.66863,-1.80873 29.29397,-1.57937 31.60659,-0.25941 2.31262,1.31997 0.89909,1.6669 0.068,3.12298 -0.83109,1.4561 4.19921,9.18195 1.8866,7.86199 -2.31262,-1.31997 -32.17334,-9.78493 -33.56119,-10.72556 z"
       id="path3854-7"
       inkscape:connector-curvature="0"
       sodipodi:nodetypes="sssss" />
    <path
       style="fill:#000000;stroke:none"
       d="m 393.47113,348.80146 c 0.43999,-0.77087 7.51271,6.13852 13.93665,9.80509 6.42394,3.66657 15.92464,4.16064 15.48465,4.93151 -0.43999,0.77088 -10.65405,1.52664 -17.07799,-2.13994 -6.42394,-3.66657 -12.7833,-11.82579 -12.34331,-12.59666 z"
       id="path3860-88"
       inkscape:connector-curvature="0"
       sodipodi:nodetypes="sssss" />
    <path
       style="fill:#000000;stroke:none"
       d="m 290.27059,288.2531 c 0.43999,-0.77087 6.05108,6.53792 12.47502,10.2045 6.42393,3.66657 18.00806,6.99468 17.56807,7.76555 -0.43998,0.77087 -12.73747,-1.30741 -19.16141,-4.97398 -6.42394,-3.66658 -11.32167,-12.2252 -10.88168,-12.99607 z"
       id="path3862-2"
       inkscape:connector-curvature="0"
       sodipodi:nodetypes="sssss" />
    <path
       style="fill:#999999;stroke:none"
       d="m 389.43251,244.92438 c 0.63554,-1.11349 7.92566,2.6732 12.8935,5.50868 4.96785,2.83549 11.4485,7.31993 10.81296,8.43341 -0.63554,1.11349 -9.16492,-0.50198 -14.13277,-3.33746 -4.96785,-2.83548 -10.20923,-9.49115 -9.57369,-10.60463 z"
       id="path3866-9"
       inkscape:connector-curvature="0"
       sodipodi:nodetypes="sssss" />
    <path
       sodipodi:type="arc"
       style="fill:#999999;stroke:none"
       id="path3871-1"
       sodipodi:cx="504.28571"
       sodipodi:cy="312.54074"
       sodipodi:rx="3.9285715"
       sodipodi:ry="0.89285713"
       d="m 508.21428,312.54074 a 3.9285715,0.89285713 0 1 1 -7.85715,0 3.9285715,0.89285713 0 1 1 7.85715,0 z"
       transform="matrix(-0.86849046,-0.49570588,0.49570588,-0.86849046,682.80517,790.74354)" />
    <path
       d="m 508.21428,312.54074 a 3.9285715,0.89285713 0 1 1 -7.85715,0 3.9285715,0.89285713 0 1 1 7.85715,0 z"
       sodipodi:ry="0.89285713"
       sodipodi:rx="3.9285715"
       sodipodi:cy="312.54074"
       sodipodi:cx="504.28571"
       id="path3873-35"
       style="fill:#999999;stroke:none"
       sodipodi:type="arc"
       transform="matrix(-0.86849046,-0.49570588,0.49570588,-0.86849046,671.94904,784.54721)" />
  </g>
  <g
     inkscape:groupmode="layer"
     id="layer6"
     inkscape:label="Frame06">
    <path
       sodipodi:type="arc"
       style="fill:#b3b3b3;stroke:none"
       id="path3818-3-3"
       sodipodi:cx="511.42856"
       sodipodi:cy="241.6479"
       sodipodi:rx="88.571426"
       sodipodi:ry="89.285713"
       d="m 599.99998,241.6479 a 88.571426,89.285713 0 1 1 -177.14285,0 88.571426,89.285713 0 1 1 177.14285,0 z"
       transform="matrix(-0.2635985,-0.96463248,0.96463248,-0.2635985,509.25869,887.43216)" />
    <path
       sodipodi:type="arc"
       style="fill:#ffffff;stroke:none"
       id="path3822-8-4"
       sodipodi:cx="473.57144"
       sodipodi:cy="233.79076"
       sodipodi:rx="26.428572"
       sodipodi:ry="24.285715"
       d="m 500.00001,233.79076 a 26.428572,24.285715 0 1 1 -52.85714,0 26.428572,24.285715 0 1 1 52.85714,0 z"
       transform="matrix(-0.2635985,-0.96463248,0.96463248,-0.2635985,546.85063,894.93105)" />
    <path
       transform="matrix(-0.2635985,-0.96463248,0.96463248,-0.2635985,517.47824,787.44344)"
       d="m 500.00001,233.79076 a 26.428572,24.285715 0 1 1 -52.85714,0 26.428572,24.285715 0 1 1 52.85714,0 z"
       sodipodi:ry="24.285715"
       sodipodi:rx="26.428572"
       sodipodi:cy="233.79076"
       sodipodi:cx="473.57144"
       id="path3824-9-9"
       style="fill:#ffffff;stroke:none"
       sodipodi:type="arc" />
    <path
       sodipodi:type="arc"
       style="fill:#000000;stroke:none"
       id="path3826-3-6"
       sodipodi:cx="463.57144"
       sodipodi:cy="280.93362"
       sodipodi:rx="19.285715"
       sodipodi:ry="18.571428"
       d="m 482.85716,280.93362 a 19.285715,18.571428 0 1 1 -38.57143,0 19.285715,18.571428 0 1 1 38.57143,0 z"
       transform="matrix(-0.2635985,-0.96463248,0.96463248,-0.2635985,503.17127,891.16894)" />
    <path
       d="m 482.85716,280.93362 a 19.285715,18.571428 0 1 1 -38.57143,0 19.285715,18.571428 0 1 1 38.57143,0 z"
       sodipodi:ry="18.571428"
       sodipodi:rx="19.285715"
       sodipodi:cy="280.93362"
       sodipodi:cx="463.57144"
       id="path3828-4-5"
       style="fill:#000000;stroke:none"
       sodipodi:type="arc"
       transform="matrix(-0.2635985,-0.96463248,0.96463248,-0.2635985,475.90765,791.39839)" />
    <path
       sodipodi:type="arc"
       style="fill:#000000;stroke:none"
       id="path3830-4-1"
       sodipodi:cx="495"
       sodipodi:cy="325.21933"
       sodipodi:rx="9.2857141"
       sodipodi:ry="2.8571429"
       d="m 504.28571,325.21933 a 9.2857141,2.8571429 0 1 1 -18.57142,0 9.2857141,2.8571429 0 1 1 18.57142,0 z"
       transform="matrix(-0.2635985,-0.96463248,0.96463248,-0.2635985,509.25869,887.43216)" />
    <path
       d="m 504.28571,325.21933 a 9.2857141,2.8571429 0 1 1 -18.57142,0 9.2857141,2.8571429 0 1 1 18.57142,0 z"
       sodipodi:ry="2.8571429"
       sodipodi:rx="9.2857141"
       sodipodi:cy="325.21933"
       sodipodi:cx="495"
       id="path3832-6-0"
       style="fill:#000000;stroke:none"
       sodipodi:type="arc"
       transform="matrix(-0.2635985,-0.96463248,0.96463248,-0.2635985,500.97417,857.11514)" />
    <path
       style="fill:#999999;stroke:none"
       d="m 559.58444,252.42192 c 7.23021,-1.97574 -0.34228,33.97414 13.07201,83.06342 13.4143,49.08928 41.85427,84.08398 34.62407,86.05973 -7.23021,1.97574 -41.88048,-31.32191 -55.29477,-80.41119 -13.4143,-49.08928 0.3685,-86.73621 7.59869,-88.71196 z"
       id="path3836-0-9"
       inkscape:connector-curvature="0"
       sodipodi:nodetypes="sssss" />
    <path
       style="fill:#666666;stroke:none"
       d="m 555.26199,252.86253 c 22.35671,2.40677 2.86616,51.13494 13.5768,90.33023 10.71064,39.19532 51.14665,65.05923 34.49584,80.17096 -18.67804,16.95162 -75.52604,-29.79867 -86.23669,-68.994 -10.71062,-39.1953 18.72475,-103.59987 38.16405,-101.50719 z"
       id="path3839-66-9"
       inkscape:connector-curvature="0"
       sodipodi:nodetypes="sssss" />
    <path
       sodipodi:type="arc"
       style="fill:#666666;stroke:none"
       id="path3842-18-6"
       sodipodi:cx="511.42856"
       sodipodi:cy="147.36218"
       sodipodi:rx="10"
       sodipodi:ry="7.8571429"
       d="m 521.42856,147.36218 a 10,7.8571429 0 1 1 -20,0 10,7.8571429 0 1 1 20,0 z"
       transform="matrix(-0.2635985,-0.96463248,0.96463248,-0.2635985,509.25869,887.43216)" />
    <path
       style="fill:#000000;stroke:none"
       d="m 684.93722,307.3948 c 2.66374,-0.7279 8.96716,11.13713 11.25487,19.50894 2.28771,8.37181 3.39499,20.91626 0.73122,21.64418 -2.66375,0.72791 -10.84593,-9.88324 -13.13364,-18.25505 -2.28771,-8.37182 -1.51622,-22.17016 1.14755,-22.89807 z"
       id="path3844-49-8"
       inkscape:connector-curvature="0"
       sodipodi:nodetypes="sssss" />
    <path
       style="fill:#000000;stroke:none"
       d="m 674.51948,270.6262 c 2.66375,-0.7279 9.59409,12.07651 11.8818,20.44832 2.28771,8.37182 1.29586,20.00895 -1.3679,20.73684 -2.66377,0.72792 -8.65264,-8.63142 -10.94037,-17.0032 -2.28771,-8.37181 -2.2373,-23.45405 0.42647,-24.18196 z"
       id="path3846-6-3"
       inkscape:connector-curvature="0"
       sodipodi:nodetypes="sssss" />
    <path
       style="fill:#000000;stroke:none"
       d="m 692.67492,340.45289 c 1.61728,-0.44193 5.27998,-4.38836 5.98189,-1.81974 0.70192,2.56863 -3.81759,30.47706 -10.8529,32.76979 -1.59408,0.51948 0.65461,-29.44397 -0.0473,-32.01259 -0.70191,-2.56863 3.30104,1.50449 4.91832,1.06254 z"
       id="path3850-3-4"
       inkscape:connector-curvature="0"
       sodipodi:nodetypes="sssss" />
    <path
       style="fill:#000000;stroke:none"
       d="m 657.17355,253.89244 c -0.60804,-3.16597 21.83074,19.59718 22.53266,22.1658 0.70192,2.56864 -0.54292,1.81443 -2.1602,2.25637 -1.61728,0.44194 -3.52333,9.4619 -4.22523,6.89329 -0.70191,-2.56863 -15.831,-29.66898 -16.14723,-31.31546 z"
       id="path3854-7-8"
       inkscape:connector-curvature="0"
       sodipodi:nodetypes="sssss" />
    <path
       style="fill:#000000;stroke:none"
       d="m 617.16887,370.34185 c 0.8562,-0.23397 0.9717,9.65288 2.92146,16.78795 1.94975,7.13507 8.3184,14.20243 7.46219,14.4364 -0.85621,0.23398 -8.61304,-6.45404 -10.5628,-13.58913 -1.94975,-7.13506 -0.67705,-17.40124 0.17915,-17.63522 z"
       id="path3860-88-4"
       inkscape:connector-curvature="0"
       sodipodi:nodetypes="sssss" />
    <path
       style="fill:#000000;stroke:none"
       d="m 587.00923,254.55389 c 0.85619,-0.23396 -0.34426,8.90177 1.6055,16.03685 1.94973,7.13506 7.78763,17.6796 6.93143,17.91358 -0.8562,0.23396 -8.08228,-9.93124 -10.03204,-17.06631 -1.94974,-7.13507 0.63889,-16.65015 1.49511,-16.88412 z"
       id="path3862-2-9"
       inkscape:connector-curvature="0"
       sodipodi:nodetypes="sssss" />
    <path
       style="fill:#999999;stroke:none"
       d="m 687.76532,294.03393 c 1.23676,-0.33796 3.71405,7.49452 5.22186,13.0123 1.50781,5.51781 2.91934,13.27129 1.68259,13.60924 -1.23674,0.33796 -6.12562,-6.83553 -7.63344,-12.35331 -1.5078,-5.51779 -0.50775,-13.93028 0.72899,-14.26823 z"
       id="path3866-9-9"
       inkscape:connector-curvature="0"
       sodipodi:nodetypes="sssss" />
    <path
       sodipodi:type="arc"
       style="fill:#999999;stroke:none"
       id="path3871-1-2"
       sodipodi:cx="504.28571"
       sodipodi:cy="312.54074"
       sodipodi:rx="3.9285715"
       sodipodi:ry="0.89285713"
       d="m 508.21428,312.54074 a 3.9285715,0.89285713 0 1 1 -7.85715,0 3.9285715,0.89285713 0 1 1 7.85715,0 z"
       transform="matrix(-0.2635985,-0.96463248,0.96463248,-0.2635985,509.25869,887.43216)" />
    <path
       d="m 508.21428,312.54074 a 3.9285715,0.89285713 0 1 1 -7.85715,0 3.9285715,0.89285713 0 1 1 7.85715,0 z"
       sodipodi:ry="0.89285713"
       sodipodi:rx="3.9285715"
       sodipodi:cy="312.54074"
       sodipodi:cx="504.28571"
       id="path3873-35-5"
       style="fill:#999999;stroke:none"
       sodipodi:type="arc"
       transform="matrix(-0.2635985,-0.96463248,0.96463248,-0.2635985,505.96372,875.37424)" />
  </g>
  <g
     inkscape:groupmode="layer"
     id="layer7"
     inkscape:label="Frame07">
    <path
       sodipodi:type="arc"
       style="fill:#b3b3b3;stroke:none"
       id="path3818-3-3-5"
       sodipodi:cx="511.42856"
       sodipodi:cy="241.6479"
       sodipodi:rx="88.571426"
       sodipodi:ry="89.285713"
       d="m 599.99998,241.6479 a 88.571426,89.285713 0 1 1 -177.14285,0 88.571426,89.285713 0 1 1 177.14285,0 z"
       transform="matrix(0.49570588,-0.86849045,0.86849045,0.49570588,-344.11168,864.763)" />
    <path
       sodipodi:type="arc"
       style="fill:#ffffff;stroke:none"
       id="path3822-8-4-3"
       sodipodi:cx="473.57144"
       sodipodi:cy="233.79076"
       sodipodi:rx="26.428572"
       sodipodi:ry="24.285715"
       d="m 500.00001,233.79076 a 26.428572,24.285715 0 1 1 -52.85714,0 26.428572,24.285715 0 1 1 52.85714,0 z"
       transform="matrix(0.49570588,-0.86849045,0.86849045,0.49570588,-322.83269,896.64704)" />
    <path
       transform="matrix(0.49570588,-0.86849045,0.86849045,0.49570588,-267.59687,799.87239)"
       d="m 500.00001,233.79076 a 26.428572,24.285715 0 1 1 -52.85714,0 26.428572,24.285715 0 1 1 52.85714,0 z"
       sodipodi:ry="24.285715"
       sodipodi:rx="26.428572"
       sodipodi:cy="233.79076"
       sodipodi:cx="473.57144"
       id="path3824-9-9-3"
       style="fill:#ffffff;stroke:none"
       sodipodi:type="arc" />
    <path
       sodipodi:type="arc"
       style="fill:#000000;stroke:none"
       id="path3826-3-6-3"
       sodipodi:cx="463.57144"
       sodipodi:cy="280.93362"
       sodipodi:rx="19.285715"
       sodipodi:ry="18.571428"
       d="m 482.85716,280.93362 a 19.285715,18.571428 0 1 1 -38.57143,0 19.285715,18.571428 0 1 1 38.57143,0 z"
       transform="matrix(0.49570588,-0.86849045,0.86849045,0.49570588,-351.05845,863.10086)" />
    <path
       d="m 482.85716,280.93362 a 19.285715,18.571428 0 1 1 -38.57143,0 19.285715,18.571428 0 1 1 38.57143,0 z"
       sodipodi:ry="18.571428"
       sodipodi:rx="19.285715"
       sodipodi:cy="280.93362"
       sodipodi:cx="463.57144"
       id="path3828-4-5-7"
       style="fill:#000000;stroke:none"
       sodipodi:type="arc"
       transform="matrix(0.49570588,-0.86849045,0.86849045,0.49570588,-299.78828,773.27411)" />
    <path
       sodipodi:type="arc"
       style="fill:#000000;stroke:none"
       id="path3830-4-1-4"
       sodipodi:cx="495"
       sodipodi:cy="325.21933"
       sodipodi:rx="9.2857141"
       sodipodi:ry="2.8571429"
       d="m 504.28571,325.21933 a 9.2857141,2.8571429 0 1 1 -18.57142,0 9.2857141,2.8571429 0 1 1 18.57142,0 z"
       transform="matrix(0.49570588,-0.86849045,0.86849045,0.49570588,-344.11168,864.763)" />
    <path
       d="m 504.28571,325.21933 a 9.2857141,2.8571429 0 1 1 -18.57142,0 9.2857141,2.8571429 0 1 1 18.57142,0 z"
       sodipodi:ry="2.8571429"
       sodipodi:rx="9.2857141"
       sodipodi:cy="325.21933"
       sodipodi:cx="495"
       id="path3832-6-0-3"
       style="fill:#000000;stroke:none"
       sodipodi:type="arc"
       transform="matrix(0.49570588,-0.86849045,0.86849045,0.49570588,-328.53237,837.46761)" />
    <path
       style="fill:#999999;stroke:none"
       d="m 140.49406,451.32862 c 6.50959,3.71547 -24.26537,23.78132 -49.491402,67.97802 -25.22602,44.1967 -29.860911,89.05179 -36.370501,85.33633 -6.50959,-3.71547 -7.466039,-51.76191 17.759988,-95.95861 25.22602,-44.1967 61.592335,-61.07119 68.101915,-57.35574 z"
       id="path3836-0-9-8"
       inkscape:connector-curvature="0"
       sodipodi:nodetypes="sssss" />
    <path
       style="fill:#666666;stroke:none"
       d="m 137.12607,448.58375 c 14.10673,17.51042 -34.13118,38.18454 -54.272874,73.47336 -20.14171,35.28884 -9.837677,82.16997 -32.297184,81.08168 C 25.362035,601.91802 18.221875,528.66297 38.363586,493.37411 58.505296,458.0853 124.86015,433.35834 137.12607,448.58375 z"
       id="path3839-66-9-0"
       inkscape:connector-curvature="0"
       sodipodi:nodetypes="sssss" />
    <path
       sodipodi:type="arc"
       style="fill:#666666;stroke:none"
       id="path3842-18-6-8"
       sodipodi:cx="511.42856"
       sodipodi:cy="147.36218"
       sodipodi:rx="10"
       sodipodi:ry="7.8571429"
       d="m 521.42856,147.36218 a 10,7.8571429 0 1 1 -20,0 10,7.8571429 0 1 1 20,0 z"
       transform="matrix(0.49570588,-0.86849045,0.86849045,0.49570588,-344.11168,864.763)" />
    <path
       style="fill:#000000;stroke:none"
       d="m 190.26017,578.83812 c 2.39825,1.36885 -1.5344,14.21588 -5.83651,21.7533 -4.30211,7.53742 -12.38941,17.19065 -14.7877,15.8218 -2.39826,-1.36885 -0.68072,-14.65774 3.62139,-22.19516 4.30211,-7.53742 14.60454,-16.7488 17.00282,-15.37994 z"
       id="path3844-49-8-8"
       inkscape:connector-curvature="0"
       sodipodi:nodetypes="sssss" />
    <path
       style="fill:#000000;stroke:none"
       d="m 208.89304,545.47234 c 2.39826,1.36885 -1.75534,15.32343 -6.05745,22.86085 -4.30211,7.53742 -13.23215,15.06477 -15.63041,13.69591 -2.39828,-1.36886 -0.015,-12.22168 4.28707,-19.75909 4.30211,-7.53742 15.00251,-18.16653 17.40079,-16.79767 z"
       id="path3846-6-3-0"
       inkscape:connector-curvature="0"
       sodipodi:nodetypes="sssss" />
    <path
       style="fill:#000000;stroke:none"
       d="m 172.35595,607.6851 c 1.45608,0.8311 6.83655,0.63047 5.51658,2.94309 -1.31996,2.31262 -24.24998,18.85109 -30.8459,15.49758 -1.49451,-0.75986 21.28291,-20.35716 22.60288,-22.66977 1.31997,-2.31262 1.27035,3.39802 2.72644,4.22911 z"
       id="path3850-3-4-6"
       inkscape:connector-curvature="0"
       sodipodi:nodetypes="sssss" />
    <path
       style="fill:#000000;stroke:none"
       d="m 208.46017,521.37436 c 1.80873,-2.66863 1.57936,29.29396 0.25941,31.60658 -1.31997,2.31264 -1.6669,0.8991 -3.12299,0.068 -1.45609,-0.83109 -9.18194,4.1992 -7.86198,1.8866 1.31997,-2.31262 9.78493,-32.17334 10.72556,-33.56119 z"
       id="path3854-7-8-8"
       inkscape:connector-curvature="0"
       sodipodi:nodetypes="sssss" />
    <path
       style="fill:#000000;stroke:none"
       d="m 97.83042,575.42895 c 0.770867,0.43998 -6.138521,7.51271 -9.805089,13.93665 -3.666575,6.42394 -4.160637,15.92464 -4.931511,15.48465 -0.770881,-0.43999 -1.526643,-10.65404 2.139939,-17.078 3.666568,-6.42393 11.825788,-12.78328 12.596661,-12.3433 z"
       id="path3860-88-4-1"
       inkscape:connector-curvature="0"
       sodipodi:nodetypes="sssss" />
    <path
       style="fill:#000000;stroke:none"
       d="m 158.37878,472.22841 c 0.77086,0.43998 -6.53793,6.05107 -10.2045,12.47502 -3.66658,6.42392 -6.99468,18.00806 -7.76555,17.56808 -0.77086,-0.43999 1.30741,-12.73749 4.97398,-19.16143 3.66658,-6.42393 12.22519,-11.32167 12.99607,-10.88167 z"
       id="path3862-2-9-9"
       inkscape:connector-curvature="0"
       sodipodi:nodetypes="sssss" />
    <path
       style="fill:#999999;stroke:none"
       d="m 201.7075,571.39033 c 1.11349,0.63555 -2.6732,7.92565 -5.50868,12.8935 -2.83549,4.96786 -7.31993,11.4485 -8.43341,10.81295 -1.11348,-0.63553 0.50198,-9.16491 3.33745,-14.13276 2.83549,-4.96785 9.49116,-10.20923 10.60464,-9.57369 z"
       id="path3866-9-9-8"
       inkscape:connector-curvature="0"
       sodipodi:nodetypes="sssss" />
    <path
       sodipodi:type="arc"
       style="fill:#999999;stroke:none"
       id="path3871-1-2-9"
       sodipodi:cx="504.28571"
       sodipodi:cy="312.54074"
       sodipodi:rx="3.9285715"
       sodipodi:ry="0.89285713"
       d="m 508.21428,312.54074 a 3.9285715,0.89285713 0 1 1 -7.85715,0 3.9285715,0.89285713 0 1 1 7.85715,0 z"
       transform="matrix(0.49570588,-0.86849045,0.86849045,0.49570588,-344.11168,864.763)" />
    <path
       d="m 508.21428,312.54074 a 3.9285715,0.89285713 0 1 1 -7.85715,0 3.9285715,0.89285713 0 1 1 7.85715,0 z"
       sodipodi:ry="0.89285713"
       sodipodi:rx="3.9285715"
       sodipodi:cy="312.54074"
       sodipodi:cx="504.28571"
       id="path3873-35-5-7"
       style="fill:#999999;stroke:none"
       sodipodi:type="arc"
       transform="matrix(0.49570588,-0.86849045,0.86849045,0.49570588,-337.91535,853.90688)" />
  </g>
  <g
     inkscape:groupmode="layer"
     id="layer8"
     inkscape:label="Frame08">
    <path
       sodipodi:type="arc"
       style="fill:#b3b3b3;stroke:none"
       id="path3818-3-3-2"
       sodipodi:cx="511.42856"
       sodipodi:cy="241.6479"
       sodipodi:rx="88.571426"
       sodipodi:ry="89.285713"
       d="m 599.99998,241.6479 a 88.571426,89.285713 0 1 1 -177.14285,0 88.571426,89.285713 0 1 1 177.14285,0 z"
       transform="matrix(0.99998773,-0.00495135,0.00495135,0.99998773,-139.76274,313.48148)" />
    <path
       sodipodi:type="arc"
       style="fill:#ffffff;stroke:none"
       id="path3822-8-4-2"
       sodipodi:cx="473.57144"
       sodipodi:cy="233.79076"
       sodipodi:rx="26.428572"
       sodipodi:ry="24.285715"
       d="m 500.00001,233.79076 a 26.428572,24.285715 0 1 1 -52.85714,0 26.428572,24.285715 0 1 1 52.85714,0 z"
       transform="matrix(0.99998773,-0.00495135,0.00495135,0.99998773,-156.73563,347.85165)" />
    <path
       transform="matrix(0.99998773,-0.00495135,0.00495135,0.99998773,-45.308458,347.29993)"
       d="m 500.00001,233.79076 a 26.428572,24.285715 0 1 1 -52.85714,0 26.428572,24.285715 0 1 1 52.85714,0 z"
       sodipodi:ry="24.285715"
       sodipodi:rx="26.428572"
       sodipodi:cy="233.79076"
       sodipodi:cx="473.57144"
       id="path3824-9-9-8"
       style="fill:#ffffff;stroke:none"
       sodipodi:type="arc" />
    <path
       sodipodi:type="arc"
       style="fill:#000000;stroke:none"
       id="path3826-3-6-2"
       sodipodi:cx="463.57144"
       sodipodi:cy="280.93362"
       sodipodi:rx="19.285715"
       sodipodi:ry="18.571428"
       d="m 482.85716,280.93362 a 19.285715,18.571428 0 1 1 -38.57143,0 19.285715,18.571428 0 1 1 38.57143,0 z"
       transform="matrix(0.99998773,-0.00495135,0.00495135,0.99998773,-141.79668,306.63433)" />
    <path
       d="m 482.85716,280.93362 a 19.285715,18.571428 0 1 1 -38.57143,0 19.285715,18.571428 0 1 1 38.57143,0 z"
       sodipodi:ry="18.571428"
       sodipodi:rx="19.285715"
       sodipodi:cy="280.93362"
       sodipodi:cx="463.57144"
       id="path3828-4-5-8"
       style="fill:#000000;stroke:none"
       sodipodi:type="arc"
       transform="matrix(0.99998773,-0.00495135,0.00495135,0.99998773,-38.369335,306.12222)" />
    <path
       sodipodi:type="arc"
       style="fill:#000000;stroke:none"
       id="path3830-4-1-9"
       sodipodi:cx="495"
       sodipodi:cy="325.21933"
       sodipodi:rx="9.2857141"
       sodipodi:ry="2.8571429"
       d="m 504.28571,325.21933 a 9.2857141,2.8571429 0 1 1 -18.57142,0 9.2857141,2.8571429 0 1 1 18.57142,0 z"
       transform="matrix(0.99998773,-0.00495135,0.00495135,0.99998773,-139.76274,313.48148)" />
    <path
       d="m 504.28571,325.21933 a 9.2857141,2.8571429 0 1 1 -18.57142,0 9.2857141,2.8571429 0 1 1 18.57142,0 z"
       sodipodi:ry="2.8571429"
       sodipodi:rx="9.2857141"
       sodipodi:cy="325.21933"
       sodipodi:cx="495"
       id="path3832-6-0-0"
       style="fill:#000000;stroke:none"
       sodipodi:type="arc"
       transform="matrix(0.99998773,-0.00495135,0.00495135,0.99998773,-108.33458,313.32587)" />
    <path
       style="fill:#999999;stroke:none"
       d="m 460.5848,526.44518 c 0.0371,7.49519 -32.72793,-9.12378 -83.61639,-8.87182 -50.88848,0.25199 -92.05156,18.66561 -92.08867,11.17041 -0.0371,-7.49521 41.0941,-32.34675 91.98257,-32.59872 50.88846,-0.25197 83.68536,22.80494 83.72249,30.30013 z"
       id="path3836-0-9-7"
       inkscape:connector-curvature="0"
       sodipodi:nodetypes="sssss" />
    <path
       style="fill:#666666;stroke:none"
       d="m 461.27793,522.15597 c -8.1111,20.972 -50.13437,-10.4662 -90.76624,-10.26499 -40.63188,0.20119 -76.08011,32.5653 -86.36736,12.57063 -11.53978,-22.42899 48.33088,-65.24008 88.96278,-65.44128 40.63185,-0.20117 95.22344,44.90034 88.17082,63.13564 z"
       id="path3839-66-9-8"
       inkscape:connector-curvature="0"
       sodipodi:nodetypes="sssss" />
    <path
       sodipodi:type="arc"
       style="fill:#666666;stroke:none"
       id="path3842-18-6-1"
       sodipodi:cx="511.42856"
       sodipodi:cy="147.36218"
       sodipodi:rx="10"
       sodipodi:ry="7.8571429"
       d="m 521.42856,147.36218 a 10,7.8571429 0 1 1 -20,0 10,7.8571429 0 1 1 20,0 z"
       transform="matrix(0.99998773,-0.00495135,0.00495135,0.99998773,-139.76274,313.48148)" />
    <path
       style="fill:#000000;stroke:none"
       d="m 375.04138,633.29864 c 0.0137,2.76135 -13.07851,5.77911 -21.75717,5.82208 -8.67864,0.043 -21.08223,-2.13421 -21.09592,-4.89563 -0.0137,-2.76137 12.3536,-7.91838 21.03226,-7.96135 8.67866,-0.043 21.80716,4.2735 21.82083,7.0349 z"
       id="path3844-49-8-5"
       inkscape:connector-curvature="0"
       sodipodi:nodetypes="sssss" />
    <path
       style="fill:#000000;stroke:none"
       d="m 413.25342,632.75229 c 0.0137,2.76138 -14.14814,6.14154 -22.82679,6.18453 -8.67866,0.043 -19.66256,-3.927 -19.6762,-6.6884 -0.0137,-2.7614 10.57676,-6.12382 19.25541,-6.16683 8.67865,-0.043 23.2339,3.90929 23.24758,6.6707 z"
       id="path3846-6-3-8"
       inkscape:connector-curvature="0"
       sodipodi:nodetypes="sssss" />
    <path
       style="fill:#000000;stroke:none"
       d="m 341.10704,632.21661 c 0.008,1.67654 2.87229,6.23587 0.20952,6.24905 -2.66278,0.0132 -28.45052,-11.57556 -28.84426,-18.96454 -0.0892,-1.67421 28.27128,8.25296 30.93404,8.23978 2.66277,-0.0132 -2.3076,2.79916 -2.29928,4.47573 z"
       id="path3850-3-4-61"
       inkscape:connector-curvature="0"
       sodipodi:nodetypes="sssss" />
    <path
       style="fill:#000000;stroke:none"
       d="m 433.90645,620.32842 c 3.21546,0.23213 -24.57963,16.01476 -27.24239,16.02794 -2.66278,0.0132 -1.61209,-0.99403 -1.62038,-2.67059 -0.008,-1.67655 -8.22761,-5.85218 -5.56485,-5.86536 2.66279,-0.0132 32.75541,-7.61268 34.42762,-7.49199 z"
       id="path3854-7-8-2"
       inkscape:connector-curvature="0"
       sodipodi:nodetypes="sssss" />
    <path
       style="fill:#000000;stroke:none"
       d="m 331.77894,551.54754 c 0.004,0.8876 -9.57545,-1.55975 -16.97204,-1.52311 -7.39657,0.0366 -15.87145,4.3591 -15.87584,3.47151 -0.004,-0.88759 8.46334,-6.64912 15.85995,-6.68574 7.39657,-0.0366 16.98354,3.84979 16.98792,4.73737 z"
       id="path3860-88-4-4"
       inkscape:connector-curvature="0"
       sodipodi:nodetypes="sssss" />
    <path
       style="fill:#000000;stroke:none"
       d="m 451.42741,552.38369 c 0.004,0.88757 -8.50935,-2.63647 -15.90593,-2.59985 -7.39659,0.0366 -19.09278,2.94645 -19.0972,2.05887 -0.004,-0.88758 11.68471,-5.23649 19.0813,-5.27312 7.39655,-0.0366 15.91744,4.9265 15.92183,5.8141 z"
       id="path3862-2-9-2"
       inkscape:connector-curvature="0"
       sodipodi:nodetypes="sssss" />
    <path
       style="fill:#999999;stroke:none"
       d="m 387.21503,639.4884 c 0.006,1.2821 -8.20042,1.64778 -13.92044,1.67612 -5.72006,0.0283 -13.57467,-0.61499 -13.58102,-1.89709 -0.006,-1.28208 8.18807,-4.14771 13.90809,-4.17606 5.72001,-0.0283 13.58701,3.11498 13.59337,4.39703 z"
       id="path3866-9-9-5"
       inkscape:connector-curvature="0"
       sodipodi:nodetypes="sssss" />
    <path
       sodipodi:type="arc"
       style="fill:#999999;stroke:none"
       id="path3871-1-2-8"
       sodipodi:cx="504.28571"
       sodipodi:cy="312.54074"
       sodipodi:rx="3.9285715"
       sodipodi:ry="0.89285713"
       d="m 508.21428,312.54074 a 3.9285715,0.89285713 0 1 1 -7.85715,0 3.9285715,0.89285713 0 1 1 7.85715,0 z"
       transform="matrix(0.99998773,-0.00495135,0.00495135,0.99998773,-139.76274,313.48148)" />
    <path
       d="m 508.21428,312.54074 a 3.9285715,0.89285713 0 1 1 -7.85715,0 3.9285715,0.89285713 0 1 1 7.85715,0 z"
       sodipodi:ry="0.89285713"
       sodipodi:rx="3.9285715"
       sodipodi:cy="312.54074"
       sodipodi:cx="504.28571"
       id="path3873-35-5-6"
       style="fill:#999999;stroke:none"
       sodipodi:type="arc"
       transform="matrix(0.99998773,-0.00495135,0.00495135,0.99998773,-127.26292,313.41961)" />
  </g>
</svg>
